<svg width="48" height="48" viewBox="0 0 48 48" fill="none" xmlns="http://www.w3.org/2000/svg">
<g clip-path="url(#clip0_434_10442)">
<path d="M0.0198574 23.8564C-0.0352157 21.2838 0.0862932 18.7105 0.383528 16.1545C0.560771 14.3839 0.895722 12.6326 1.38439 10.9216C1.44331 10.6977 1.58469 10.5044 1.78015 10.3804C2.53719 9.86544 3.34029 9.42173 4.17915 9.05499C5.07916 8.68656 6.01279 8.38692 6.93878 8.09493C8.02001 7.7527 9.1206 7.475 10.2347 7.26328C12.1959 6.87219 14.2045 6.77584 16.1941 6.9774C19.7085 7.37335 22.6576 8.85778 25.0306 11.4811C26.6504 13.2698 27.7811 15.3428 28.6062 17.5962C28.9053 18.4473 29.1548 19.315 29.3534 20.1951C29.3818 20.2791 29.3822 20.37 29.3547 20.4544C29.3272 20.5387 29.2731 20.6118 29.2006 20.6629C25.6984 23.5874 22.488 26.8192 19.2898 30.0632C16.8908 32.5031 14.5387 34.9848 12.2334 37.5083C11.2005 38.6288 10.1262 39.7158 9.19568 40.9266C8.45895 41.8491 7.89848 42.8996 7.54235 44.0254C7.46328 44.2749 7.40502 44.5306 7.36815 44.7897C7.33148 45.0726 7.2291 45.0542 7.02435 44.9289C5.07224 43.7357 3.50348 42.007 2.50443 39.9482C1.47149 37.8706 0.922923 35.6493 0.588285 33.3745C0.134566 30.2231 -0.0555696 27.0394 0.0198574 23.8564Z" fill="#9C8CFB"/>
<path d="M47.9664 23.9406C48.0764 26.6328 47.8762 29.2668 47.589 31.8902C47.3017 34.5135 46.7929 37.0681 45.7003 39.4866C44.1601 42.8911 41.5456 45.0773 38.0602 46.2896C35.4747 47.1885 32.7915 47.5477 30.0823 47.7878C26.9025 48.0706 23.7089 48.0002 20.5214 47.9697C20.0294 47.9697 19.5359 47.9055 19.0438 47.8688C18.9812 47.8688 18.891 47.8688 18.8819 47.7985C18.8635 47.6914 18.969 47.7037 19.0347 47.6853C22.4238 46.6611 25.4325 44.9809 27.9645 42.4875C29.7739 40.6873 31.2407 38.5728 32.2934 36.2471C33.4944 33.6483 34.208 30.9087 34.5854 28.079C34.8057 26.4938 34.9078 24.8943 34.891 23.294C34.8831 23.1386 34.9117 22.9834 34.9746 22.8411C35.0375 22.6988 35.1329 22.5732 35.2532 22.4745C37.1586 20.7547 39.0473 19.0165 40.9558 17.3012C42.8643 15.586 44.7621 13.9211 46.6599 12.2257C46.8815 12.027 46.9182 12.1294 46.9655 12.3419C47.3328 13.9751 47.5835 15.6324 47.7158 17.3012C47.9037 19.5256 48.0718 21.7499 47.9664 23.9406Z" fill="#9C8CFB"/>
<path d="M36.7491 1.31639C37.1983 1.41071 37.6385 1.5437 38.0647 1.71387C40.4882 2.56692 42.5908 3.88623 44.1769 5.95159C45.2465 7.33817 45.9524 8.9021 46.4918 10.5547C46.5911 10.8604 46.3925 10.9063 46.2046 10.9567C45.659 11.0989 45.1212 11.2625 44.5848 11.4322C43.5794 11.7693 42.5919 12.1581 41.6266 12.5971C38.9082 13.785 36.2922 15.1807 33.6686 16.5581C33.4516 16.6713 33.3508 16.6284 33.2499 16.4282C32.3034 14.5135 31.1778 12.6928 29.8883 10.9904C27.9232 8.42665 25.6021 6.27416 22.6515 4.87534C20.3528 3.79896 17.8237 3.30792 15.2895 3.44595C13.313 3.55023 11.3636 3.95276 9.50739 4.63991C7.71795 5.28822 6.00457 6.12994 4.39766 7.15014C3.63364 7.6317 2.96895 8.25543 2.31037 8.87611C2.25077 8.93267 2.20952 9.01217 2.09033 9.02898C2.10358 8.88565 2.14902 8.74716 2.22327 8.62386C3.63975 5.42722 6.0082 3.23651 9.24457 1.96153C11.1332 1.23865 13.1041 0.752874 15.1122 0.51532C17.4502 0.195657 19.806 0.0225695 22.1656 -0.00292969C23.6203 -0.00292969 25.0688 0.0536344 26.4899 0.37926C29.2006 0.990764 31.5202 2.26422 33.2514 4.48398C34.2589 5.79962 34.9911 7.30481 35.4044 8.90974C35.6893 9.97687 35.8835 11.0662 35.9851 12.166C35.9943 12.2486 35.9851 12.351 36.0737 12.3861C36.1623 12.4213 36.2265 12.3387 36.2876 12.2807C37.3257 11.3118 38.0348 10.0422 38.3153 8.64985C38.6943 6.83674 38.4101 5.08784 37.7851 3.38327C37.5331 2.77032 37.2262 2.18139 36.8683 1.62367C36.8118 1.53959 36.717 1.46927 36.7491 1.31639Z" fill="#9C8CFB"/>
<path d="M29.3764 28.0238C28.918 32.4755 27.2005 36.2913 23.689 39.1837C22.3508 40.2583 20.8511 41.1143 19.2455 41.7199C17.869 42.2397 16.4475 42.6317 14.9991 42.891C14.9273 42.9047 14.8372 42.9445 14.7929 42.8772C14.7226 42.7671 14.8402 42.709 14.8983 42.6448C16.7732 40.5825 18.6359 38.5095 20.526 36.4625C22.5873 34.229 24.6655 32.0092 26.8521 29.8965C27.5658 29.1823 28.3247 28.5149 29.1242 27.8984C29.1884 27.851 29.2511 27.7593 29.3428 27.822C29.41 27.8648 29.3825 27.9519 29.3764 28.0238Z" fill="#9C8CFB"/>
</g>
<defs>
<clipPath id="clip0_434_10442">
<rect width="48" height="48" fill="white"/>
</clipPath>
</defs>
</svg>
